<?xml version="1.0" encoding="UTF-8"?><svg id="Layer_2" xmlns="http://www.w3.org/2000/svg" viewBox="0 0 170.15 172.4"><defs><style>.cls-1{fill:#010101;}.cls-2{fill:#fff;}.cls-2,.cls-3,.cls-4{stroke-miterlimit:10;}.cls-2,.cls-4{stroke:#231f20;stroke-width:5px;}.cls-3{stroke:#000;stroke-width:6px;}.cls-3,.cls-4{fill:none;}.cls-4{stroke-linecap:round;}</style></defs><g id="Layer_1-2"><rect class="cls-2" x="28.07" y="26.92" width="114" height="114" rx="4" ry="4"/><line class="cls-4" x1="143.23" y1="83.92" x2="167.65" y2="83.92"/><line class="cls-4" x1="143.23" y1="61.42" x2="167.65" y2="61.42"/><line class="cls-4" x1="143.23" y1="106.42" x2="167.65" y2="106.42"/><path class="cls-1" d="M100.27,58.3c.72-1.66.18-3.6-1.28-4.67s-3.47-.97-4.84.22l-31.03,27.15c-1.21,1.07-1.65,2.78-1.08,4.28.57,1.5,2.02,2.52,3.64,2.52h13.51l-9.32,21.74c-.72,1.66-.18,3.6,1.28,4.67,1.47,1.07,3.47.97,4.84-.22l31.03-27.15c1.21-1.07,1.65-2.78,1.08-4.28s-2.01-2.51-3.64-2.51h-13.51l9.32-21.76Z"/><path class="cls-3" d="M82.96,41.7c.76,0,1.53.17,2.22.48l31.23,13.25c3.65,1.54,6.37,5.14,6.35,9.49-.08,16.45-6.85,46.55-35.42,60.24-2.77,1.33-5.99,1.33-8.76,0-28.58-13.68-35.34-43.78-35.42-60.24-.02-4.35,2.7-7.94,6.35-9.49l31.25-13.25c.68-.32,1.44-.48,2.21-.48Z"/><line class="cls-4" x1="2.5" y1="83.92" x2="26.92" y2="83.92"/><line class="cls-4" x1="2.5" y1="61.42" x2="26.92" y2="61.42"/><line class="cls-4" x1="2.5" y1="106.42" x2="26.92" y2="106.42"/><line class="cls-4" x1="85.07" y1="26.92" x2="85.07" y2="2.5"/><line class="cls-4" x1="62.57" y1="26.92" x2="62.57" y2="2.5"/><line class="cls-4" x1="107.57" y1="26.92" x2="107.57" y2="2.5"/><line class="cls-4" x1="85.07" y1="169.9" x2="85.07" y2="145.48"/><line class="cls-4" x1="62.57" y1="169.9" x2="62.57" y2="145.48"/><line class="cls-4" x1="107.57" y1="169.9" x2="107.57" y2="145.48"/></g></svg>